<?xml version="1.0" encoding="UTF-8" standalone="no"?>
<!-- Created with Inkscape (http://www.inkscape.org/) -->

<svg
   version="1.1"
   id="svg1"
   width="1440"
   height="1440"
   viewBox="0 0 1440 1440"
   sodipodi:docname="01.ai"
   xmlns:inkscape="http://www.inkscape.org/namespaces/inkscape"
   xmlns:sodipodi="http://sodipodi.sourceforge.net/DTD/sodipodi-0.dtd"
   xmlns="http://www.w3.org/2000/svg"
   xmlns:svg="http://www.w3.org/2000/svg">
  <defs
     id="defs1">
    <clipPath
       clipPathUnits="userSpaceOnUse"
       id="clipPath2">
      <path
         d="M 178.2,281.569 H 901.797 V 798.425 H 178.2 Z"
         transform="translate(-799.12404,-557.58271)"
         id="path2" />
    </clipPath>
    <clipPath
       clipPathUnits="userSpaceOnUse"
       id="clipPath4">
      <path
         d="M 178.2,281.569 H 901.797 V 798.425 H 178.2 Z"
         transform="translate(-451.30571,-583.12132)"
         id="path4" />
    </clipPath>
    <clipPath
       clipPathUnits="userSpaceOnUse"
       id="clipPath6">
      <path
         d="M 178.2,281.569 H 901.797 V 798.425 H 178.2 Z"
         transform="translate(-396.65921,-665.54362)"
         id="path6" />
    </clipPath>
    <clipPath
       clipPathUnits="userSpaceOnUse"
       id="clipPath8">
      <path
         d="M 178.2,281.569 H 901.797 V 798.425 H 178.2 Z"
         transform="translate(-573.97072,-678.59441)"
         id="path8" />
    </clipPath>
    <clipPath
       clipPathUnits="userSpaceOnUse"
       id="clipPath10">
      <path
         d="M 178.2,281.569 H 901.797 V 798.425 H 178.2 Z"
         transform="translate(-559.54492,-546.28631)"
         id="path10" />
    </clipPath>
    <clipPath
       clipPathUnits="userSpaceOnUse"
       id="clipPath12">
      <path
         d="M 178.2,281.569 H 901.797 V 798.425 H 178.2 Z"
         transform="translate(-687.70511,-643.43282)"
         id="path12" />
    </clipPath>
    <clipPath
       clipPathUnits="userSpaceOnUse"
       id="clipPath14">
      <path
         d="M 178.2,281.569 H 901.797 V 798.425 H 178.2 Z"
         transform="translate(-668.54981,-592.84981)"
         id="path14" />
    </clipPath>
    <clipPath
       clipPathUnits="userSpaceOnUse"
       id="clipPath16">
      <path
         d="M 178.2,281.569 H 901.797 V 798.425 H 178.2 Z"
         transform="translate(-396.65921,-665.54362)"
         id="path16" />
    </clipPath>
    <clipPath
       clipPathUnits="userSpaceOnUse"
       id="clipPath18">
      <path
         d="M 178.2,281.569 H 901.797 V 798.425 H 178.2 Z"
         transform="translate(-721.28612,-548.66131)"
         id="path18" />
    </clipPath>
    <clipPath
       clipPathUnits="userSpaceOnUse"
       id="clipPath20">
      <path
         d="M 178.2,281.569 H 901.797 V 798.425 H 178.2 Z"
         transform="translate(-556.84861,-445.83511)"
         id="path20" />
    </clipPath>
    <clipPath
       clipPathUnits="userSpaceOnUse"
       id="clipPath22">
      <path
         d="M 178.2,281.569 H 901.797 V 798.425 H 178.2 Z"
         transform="translate(-521.33641,-444.37321)"
         id="path22" />
    </clipPath>
    <clipPath
       clipPathUnits="userSpaceOnUse"
       id="clipPath24">
      <path
         d="M 178.2,281.569 H 901.797 V 798.425 H 178.2 Z"
         transform="translate(-557.88481,-350.96301)"
         id="path24" />
    </clipPath>
    <clipPath
       clipPathUnits="userSpaceOnUse"
       id="clipPath26">
      <path
         d="M 0,1080 H 1080 V 0 H 0 Z"
         transform="translate(-799.12404,-557.58271)"
         id="path26" />
    </clipPath>
    <clipPath
       clipPathUnits="userSpaceOnUse"
       id="clipPath28">
      <path
         d="M 0,1080 H 1080 V 0 H 0 Z"
         transform="translate(-556.84861,-445.83511)"
         id="path28" />
    </clipPath>
    <clipPath
       clipPathUnits="userSpaceOnUse"
       id="clipPath30">
      <path
         d="M 0,1080 H 1080 V 0 H 0 Z"
         transform="translate(-668.54981,-592.84981)"
         id="path30" />
    </clipPath>
    <clipPath
       clipPathUnits="userSpaceOnUse"
       id="clipPath32">
      <path
         d="M 0,1080 H 1080 V 0 H 0 Z"
         transform="translate(-573.97072,-678.59392)"
         id="path32" />
    </clipPath>
    <clipPath
       clipPathUnits="userSpaceOnUse"
       id="clipPath34">
      <path
         d="M 0,1080 H 1080 V 0 H 0 Z"
         transform="translate(-396.65921,-665.54362)"
         id="path34" />
    </clipPath>
    <clipPath
       clipPathUnits="userSpaceOnUse"
       id="clipPath36">
      <path
         d="M 0,1080 H 1080 V 0 H 0 Z"
         transform="translate(-687.70511,-643.43282)"
         id="path36" />
    </clipPath>
    <clipPath
       clipPathUnits="userSpaceOnUse"
       id="clipPath38">
      <path
         d="M 0,1080 H 1080 V 0 H 0 Z"
         transform="translate(-666.42872,-552.42251)"
         id="path38" />
    </clipPath>
    <clipPath
       clipPathUnits="userSpaceOnUse"
       id="clipPath40">
      <path
         d="M 0,1080 H 1080 V 0 H 0 Z"
         transform="translate(-442.35351,-571.45282)"
         id="path40" />
    </clipPath>
    <clipPath
       clipPathUnits="userSpaceOnUse"
       id="clipPath42">
      <path
         d="M 0,1080 H 1080 V 0 H 0 Z"
         transform="translate(-365.80081,-576.14812)"
         id="path42" />
    </clipPath>
    <clipPath
       clipPathUnits="userSpaceOnUse"
       id="clipPath44">
      <path
         d="M 0,1080 H 1080 V 0 H 0 Z"
         transform="translate(-437.30711,-511.25212)"
         id="path44" />
    </clipPath>
    <clipPath
       clipPathUnits="userSpaceOnUse"
       id="clipPath46">
      <path
         d="M 0,1080 H 1080 V 0 H 0 Z"
         transform="translate(-721.28612,-548.66131)"
         id="path46" />
    </clipPath>
    <clipPath
       clipPathUnits="userSpaceOnUse"
       id="clipPath48">
      <path
         d="M 0,1080 H 1080 V 0 H 0 Z"
         transform="translate(-557.88481,-350.96301)"
         id="path48" />
    </clipPath>
    <clipPath
       clipPathUnits="userSpaceOnUse"
       id="clipPath50">
      <path
         d="M 0,1080 H 1080 V 0 H 0 Z"
         transform="translate(-556.84861,-445.83511)"
         id="path50" />
    </clipPath>
    <clipPath
       clipPathUnits="userSpaceOnUse"
       id="clipPath52">
      <path
         d="M 0,1080 H 1080 V 0 H 0 Z"
         transform="translate(-556.34371,-409.33221)"
         id="path52" />
    </clipPath>
    <clipPath
       clipPathUnits="userSpaceOnUse"
       id="clipPath54">
      <path
         d="M 0,1080 H 1080 V 0 H 0 Z"
         transform="translate(-555.88961,-401.46891)"
         id="path54" />
    </clipPath>
    <clipPath
       clipPathUnits="userSpaceOnUse"
       id="clipPath56">
      <path
         d="M 0,1080 H 1080 V 0 H 0 Z"
         transform="translate(-529.19821,-355.98751)"
         id="path56" />
    </clipPath>
    <clipPath
       clipPathUnits="userSpaceOnUse"
       id="clipPath58">
      <path
         d="M 0,1080 H 1080 V 0 H 0 Z"
         transform="translate(-557.88481,-349.12031)"
         id="path58" />
    </clipPath>
  </defs>
  <sodipodi:namedview
     id="namedview1"
     pagecolor="#ffffff"
     bordercolor="#000000"
     borderopacity="0.25"
     inkscape:showpageshadow="2"
     inkscape:pageopacity="0.0"
     inkscape:pagecheckerboard="0"
     inkscape:deskcolor="#d1d1d1">
    <inkscape:page
       x="0"
       y="0"
       inkscape:label="1"
       id="page1"
       width="1440"
       height="1440"
       margin="375.42532 237.59734 375.42532 237.59599"
       bleed="0" />
  </sodipodi:namedview>
  <g
     id="layer-MC0"
     inkscape:groupmode="layer"
     inkscape:label="Layer 1">
    <path
       id="path1"
       d="m 0,0 c -3.014,-0.072 -7.025,0.194 -9.604,1.792 -4.619,2.857 -2.138,8.291 0.162,11.875 1.458,2.27 2.945,4.32 4.463,6.141 3.723,4.467 7.498,8.947 11.323,13.435 3.52,4.129 7.142,8.955 9.602,13.887 2.03,4.057 3.496,9.644 0.525,13.68 -1.826,2.481 -4.988,3.825 -7.942,4.624 -2.697,0.731 -5.355,1.259 -7.98,1.593 -5.532,0.701 -10.943,1.445 -16.222,2.231 -10.592,1.576 -21.817,4.894 -30.271,11.791 -3.174,2.591 -6.154,5.874 -8.939,9.851 -3.787,5.401 -7.338,11.043 -11.379,16.136 -5.439,6.854 -11.336,13.815 -17.692,20.877 -19.477,21.646 -43.518,39.852 -69.109,53.194 -35.408,18.46 -72.944,27.449 -112.611,26.963 -45.829,-0.562 -91.456,-13.722 -128.9,-39.916 -9.928,-6.944 -19.167,-14.927 -28.681,-24.085 -13.479,-12.983 -26.387,-27.575 -36.151,-43.22 -2.925,-4.687 -5.355,-9.345 -7.295,-13.972 -2.261,-5.401 -4.421,-9.762 -8.305,-13.706 -6.907,-7.015 -16.336,-8.997 -26.002,-9.052 -4.646,-0.03 -9.143,-0.025 -13.488,0.005 -3.149,0.021 -6.374,-0.267 -9.666,-0.871 -6.442,-1.175 -11.602,-4.501 -14.882,-10.253 -2.257,-3.956 -2.883,-8.452 -3.512,-13.059 -1.843,-13.443 -11.941,-21.113 -24.375,-24.955 -7.6,-2.345 -15.685,-3.664 -23.445,-5.342 -7.004,-1.509 -17.608,-4.5 -19.062,-12.915 -0.804,-4.623 1.246,-10.003 3.436,-14.187 1.669,-3.199 3.567,-6.292 5.693,-9.29 4.43,-6.241 9.755,-12.699 15.973,-19.372 9.687,-10.392 19.243,-19.473 29.611,-28.995 6.366,-5.845 12.537,-11.838 17.79,-18.654 5.085,-6.606 8.462,-13.723 10.136,-21.351 2.683,-12.214 -1.251,-24.326 -0.993,-36.463 0.172,-8.152 2.81,-15.235 7.907,-21.257 5.089,-6.019 11.936,-10.397 19.122,-13.376 6.809,-2.824 14.057,-4.869 21.75,-6.132 19.734,-3.25 39.667,-7.07 59.807,-11.462 27.375,-5.967 54.219,-12.382 80.534,-19.245 10.926,-2.849 24.282,-6.433 40.06,-10.756 7.325,-2.008 14.633,-4.53 21.737,-6.564 12.232,-3.499 24.752,-3.917 37.554,-1.254 10.791,2.244 21.108,6.533 31.269,11.816 3.998,2.079 8.36,3.893 12.662,5.376 18.708,6.466 39.642,11.267 59.267,14.736 6.445,1.137 12.925,2.257 19.43,3.356 8.863,1.5 19.713,3.642 32.548,6.427 16.367,3.555 32.461,7.067 48.286,10.537 7.24,1.588 15.254,3.097 24.041,4.521 10.782,1.754 18.961,8.149 21.927,19.052 0.977,3.584 1.632,7.557 1.957,11.913 0.309,4.112 0.698,8.893 1.171,14.335 0.609,6.965 2.004,14.298 4.071,21.131 4.032,13.329 10.008,25.982 17.933,37.964 10.955,16.57 24.337,32.292 36.751,48.017 5.258,6.664 10.042,13.651 14.349,20.953 1.864,3.165 3.302,6.217 4.307,9.154 1.192,3.487 1.399,7.404 -1.699,9.973 C 87.444,8.879 85.521,9.741 83.176,10.21 76.227,11.605 67.964,10.764 60.644,9.716 44.642,7.421 28.918,3.554 12.776,1.116 8.521,0.469 4.265,0.097 0,0"
       style="fill:none;stroke:#ffffff;stroke-width:1;stroke-linecap:butt;stroke-linejoin:miter;stroke-miterlimit:10;stroke-dasharray:none;stroke-opacity:1"
       transform="matrix(1.3333333,0,0,-1.3333333,1065.4987,696.5564)"
       clip-path="url(#clipPath2)" />
    <path
       id="path3"
       d="m 0,0 c 0.372,-0.173 0.777,-0.435 1.213,-0.794 0.393,-0.326 0.79,-0.622 1.192,-0.879 5.499,-3.601 11.171,-7.328 17.008,-11.183 5.575,-3.681 10.398,-7.548 14.463,-11.609 10.03,-10.02 18.885,-22.834 26.653,-35.364 3.618,-5.837 7.376,-11.947 11.277,-18.329 0.372,-0.613 0.778,-1.251 1.222,-1.919 0.249,-0.38 0.368,-0.342 0.355,0.114 -0.072,2.482 -0.153,5.233 -0.233,8.254 -0.101,3.77 -0.849,7.417 -1.665,11.068 -2.025,9.057 -4.552,17.636 -7.591,25.738 -4.78,12.745 -12.122,24.714 -20.275,36.09 C 36.438,11.208 28.449,20.869 19.654,30.17 5.938,44.683 -9.358,57.171 -26.227,67.64 c -9.784,6.072 -19.26,11 -28.419,14.782"
       style="fill:none;stroke:#f1af93;stroke-width:1;stroke-linecap:butt;stroke-linejoin:miter;stroke-miterlimit:10;stroke-dasharray:none;stroke-opacity:1"
       transform="matrix(1.3333333,0,0,-1.3333333,601.74093,662.50493)"
       clip-path="url(#clipPath4)" />
    <path
       id="path5"
       d="m 0,0 c 0.009,0.288 0.152,0.431 0.427,0.436 4.151,0.042 8.673,-1.404 12.519,-2.993 6.184,-2.565 11.873,-5.481 17.063,-8.752 10.804,-6.808 21.146,-13.934 31.028,-21.372 8.588,-6.461 16.112,-13.117 22.574,-19.96 3.745,-3.968 7.477,-8.207 11.193,-12.716 1.741,-2.113 3.347,-4.205 4.818,-6.271 7.08,-9.945 13.136,-20.13 18.174,-30.556 2.946,-6.089 5.178,-11.676 6.704,-16.769 1.356,-4.526 2.583,-9.37 3.673,-14.525 1.243,-5.854 2.422,-11.457 3.534,-16.808 0.274,-1.322 0.443,-1.309 0.511,0.038 0.228,4.632 0.211,9.209 0.372,14.166 0.11,3.314 -0.017,6.906 0.363,10.426 0.148,1.391 0.017,2.811 0.093,4.218 0.571,10.671 1.627,20.776 3.179,30.314 0.452,2.785 0.934,5.583 1.437,8.393 3.605,20.058 9.332,39.806 17.177,59.247 5.799,14.373 12.722,27.584 20.769,39.636 0.402,0.597 1.07,1.374 2.003,2.329 0.158,0.157 0.347,0.258 0.572,0.296 0.257,0.046 0.468,-0.064 0.629,-0.325 0.089,-0.144 0.123,-0.313 0.097,-0.478 -0.249,-1.771 -0.782,-3.415 -1.597,-4.923"
       style="fill:none;stroke:#b7e5e5;stroke-width:1;stroke-linecap:butt;stroke-linejoin:miter;stroke-miterlimit:10;stroke-dasharray:none;stroke-opacity:1"
       transform="matrix(1.3333333,0,0,-1.3333333,528.87893,552.60853)"
       clip-path="url(#clipPath6)" />
    <path
       id="path7"
       d="m 0,0 c -10.938,-19.846 -18.99,-40.939 -25.207,-62.636 -7.9,-27.58 -13.006,-55.616 -15.318,-84.109 -0.224,-2.751 -0.401,-5.565 -0.532,-8.435 -0.313,-6.884 -0.491,-13.684 -0.528,-20.396 -0.005,-0.126 0.021,-0.202 0.075,-0.223 0.14,-0.059 0.296,0.008 0.356,0.148 0.866,2.083 1.728,4.162 2.594,6.237 5.225,12.497 12.258,24.44 21.975,34.135 0.926,0.925 1.648,1.914 2.159,2.971"
       style="fill:none;stroke:#f1af93;stroke-width:1;stroke-linecap:butt;stroke-linejoin:miter;stroke-miterlimit:10;stroke-dasharray:none;stroke-opacity:1"
       transform="matrix(1.3333333,0,0,-1.3333333,765.29427,535.20747)"
       clip-path="url(#clipPath8)" />
    <path
       id="path9"
       d="m 0,0 c 0.106,-0.3 0.372,-0.258 0.791,0.127 4.764,4.366 9.751,8.456 14.958,12.281 16.966,12.459 34.231,23.688 51.733,35.994 19.709,13.858 36.57,30.437 50.577,49.738 0.811,1.119 1.762,2.197 2.857,3.233 0.723,0.684 1.53,0.84 2.422,0.469 1.644,-0.681 3.39,-1.657 5.241,-2.925 0.207,-0.144 0.283,-0.338 0.233,-0.583 -0.187,-0.926 -0.402,-1.323 -0.652,-1.188"
       style="fill:none;stroke:#b7e5e5;stroke-width:1;stroke-linecap:butt;stroke-linejoin:miter;stroke-miterlimit:10;stroke-dasharray:none;stroke-opacity:1"
       transform="matrix(1.3333333,0,0,-1.3333333,746.05987,711.61827)"
       clip-path="url(#clipPath10)" />
    <path
       id="path11"
       d="m 0,0 c -4.332,-5.012 -8.593,-9.944 -12.777,-14.796 -10.131,-11.744 -20.846,-22.935 -32.144,-33.568 -10.71,-10.084 -22.776,-20.099 -36.2,-30.048 -11.806,-8.752 -23.665,-17.458 -35.576,-26.126 -6.868,-4.999 -13.462,-10.849 -19.781,-17.551 -9.514,-10.088 -16.589,-22.145 -18.927,-35.694 -0.308,-1.796 -0.456,-3.499 -0.439,-5.114 0.004,-0.431 0.106,-0.457 0.304,-0.072 7.701,14.809 17.583,27.829 29.329,39.722 10.004,10.13 20.608,19.026 31.814,26.697 9.168,6.271 20.947,13.942 35.347,23.007 12.574,7.919 24.615,14.863 36.125,20.835 0.511,0.266 1.137,0.625 1.876,1.069 0.668,0.406 1.298,0.756 1.894,1.056"
       style="fill:none;stroke:#f1af93;stroke-width:1;stroke-linecap:butt;stroke-linejoin:miter;stroke-miterlimit:10;stroke-dasharray:none;stroke-opacity:1"
       transform="matrix(1.3333333,0,0,-1.3333333,916.94013,582.0896)"
       clip-path="url(#clipPath12)" />
    <path
       id="path13"
       d="m 0,0 c 9.811,5.722 19.976,10.49 30.496,14.306 2.586,0.938 5.278,1.83 8.081,2.675 5.055,1.525 10.122,3.06 15.203,4.598 1.204,0.368 2.329,0.841 3.381,1.42 1.024,0.566 1.277,1.53 0.761,2.886 -0.705,1.851 -1.491,3.622 -2.362,5.308 -3.023,5.853 -6.32,11.491 -9.882,16.913 -4.514,6.876 -9.401,13.883 -14.633,19.732 -5.981,6.69 -12.896,13.79 -20.744,21.304 -25.926,24.82 -59.275,41.826 -94.614,50.24 -2.632,0.63 -5.337,1.23 -8.115,1.805 -10.135,2.101 -20.288,3.204 -30.461,3.301 -7.735,0.076 -15.706,0.105 -23.914,0.089 -2.76,-0.005 -5.457,-0.161 -8.094,-0.461 -11.594,-1.331 -21.666,-3.098 -30.208,-5.304 -36.155,-9.327 -69.714,-27.677 -96.342,-53.879 -3.153,-3.102 -6.467,-6.525 -9.941,-10.269 -7.997,-8.618 -15.554,-18.389 -22.667,-29.305 -5.081,-7.788 -9.35,-16.16 -13.103,-24.647 -0.207,-0.46 -0.372,-0.946 -0.499,-1.449 -0.148,-0.583 0.229,-1.175 0.821,-1.281 2.079,-0.384 4.07,-0.612 5.972,-0.689 3.03,-0.126 6.124,-0.316 9.277,-0.397 6.45,-0.165 13.158,-0.537 20.119,-1.115 14.561,-1.218 28.923,-5.439 42.981,-10.109 7.126,-2.367 13.977,-5.461 20.55,-9.281 3.444,-2.007 7.011,-4.044 10.693,-6.12"
       style="fill:none;stroke:#b7e5e5;stroke-width:1;stroke-linecap:butt;stroke-linejoin:miter;stroke-miterlimit:10;stroke-dasharray:none;stroke-opacity:1"
       transform="matrix(1.3333333,0,0,-1.3333333,891.39973,649.5336)"
       clip-path="url(#clipPath14)" />
    <path
       id="path15"
       d="m 0,0 c -0.308,0.106 -0.456,-0.063 -0.443,-0.507 0.004,-0.144 0.054,-0.27 0.143,-0.38 0.288,-0.36 0.6,-0.676 0.939,-0.955 2.594,-2.143 5.029,-4.222 7.303,-6.238 18.17,-16.106 31.599,-35.339 40.276,-57.708 1.496,-3.846 2.721,-8.127 4.184,-12.07 0.389,-1.044 1.137,-2.565 2.244,-4.564 m 108.24,-36.835 c 0.254,1.449 0.368,2.874 0.343,4.277 -0.166,8.667 -0.38,17.331 -0.647,25.99 -0.216,7.037 -0.267,14.864 0.14,21.034 1.162,17.686 3.774,35.415 7.827,53.186 0.727,3.187 1.463,6.369 2.202,9.547 0.174,0.735 0.457,1.403 0.588,2.151 0.093,0.536 0.22,1.077 0.376,1.618 0.292,1.011 0.519,2.041 0.681,3.094 0.147,0.955 0.397,1.974 0.756,3.055 0.892,2.693 1.611,5.477 2.16,8.356 m 94.579,-85.745 15.166,40.022 c 0.012,0.038 0.033,0.063 0.062,0.085 0.03,0.021 0.06,0.042 0.085,0.063 0.038,0.034 0.064,0.08 0.085,0.135 1.095,3.318 2.35,6.745 3.757,10.278"
       style="fill:none;stroke:#a89578;stroke-width:1;stroke-linecap:butt;stroke-linejoin:miter;stroke-miterlimit:10;stroke-dasharray:none;stroke-opacity:1"
       transform="matrix(1.3333333,0,0,-1.3333333,528.87893,552.60853)"
       clip-path="url(#clipPath16)" />
    <path
       id="path17"
       d="m 0,0 c -13.031,-2.379 -26.227,-5.452 -39.587,-9.226 -16.327,-4.606 -31.602,-10.472 -45.829,-17.593 -2.912,-1.458 -5.731,-2.958 -8.449,-4.493 -1.086,-0.612 -3.695,-2.142 -4.198,-3.148 -0.076,-0.156 0.026,-0.347 0.2,-0.363 1.082,-0.127 2.172,-0.022 3.266,0.321 4.375,1.365 8.259,2.637 11.654,3.82 15.177,5.291 30.406,10.802 45.718,15.971 12.453,4.201 24.558,7.531 36.312,9.986 8.217,1.721 16.268,3.411 24.159,5.072 0.935,0.198 1.953,0.524 2.841,0.875 1.149,0.456 1.124,0.832 -0.076,1.128 C 25.102,2.574 24.163,2.675 23.187,2.658 20.942,2.621 18.804,2.519 16.767,2.358 12.291,2.008 6.703,1.222 0,0 m -283.979,-37.409 c 17.236,-8.352 33.534,-18.739 49.354,-29.846 1.497,-1.048 3.082,-2.019 4.759,-2.916 0.195,-0.105 0.419,0.072 0.364,0.283 -0.368,1.45 -2.278,3.466 -3.453,4.616 -2.181,2.129 -4.417,4.12 -6.712,5.966 -7.063,5.685 -14.81,11.15 -23.243,16.398 -17.552,10.917 -36.429,20.096 -56.628,27.533 -14.696,5.414 -28.733,9.763 -42.101,13.051 -22.532,5.545 -45.416,9.416 -68.645,11.609 -1.331,0.127 -2.604,0.211 -3.813,0.249 -3.165,0.102 -6.306,0.271 -9.586,0.305 -10.093,0.101 -19.839,0.135 -29.239,0.101 -1.67,-0.004 -3.327,-0.152 -4.962,-0.435 -0.508,-0.089 -0.909,-0.431 -1.205,-1.019 -0.224,-0.444 0.042,-0.976 0.532,-1.061 0.808,-0.143 1.611,-0.308 2.444,-0.346 10.647,-0.461 21.39,-1.137 32.236,-2.033 25.495,-2.105 50.47,-6.428 75.564,-12.547 29.066,-7.092 57.575,-16.942 84.334,-29.908 m -71.506,64.896 c -26.738,8.634 -52.132,14.69 -79.089,16.689 -4.645,0.342 -9.113,0.668 -13.394,0.972 -0.153,0.013 -0.288,-0.102 -0.301,-0.253 -0.016,-0.182 0.056,-0.317 0.212,-0.415 1.784,-1.09 3.677,-2.032 5.685,-2.823 3.326,-1.314 6.593,-2.683 9.793,-4.112 6.961,-3.106 13.327,-6.893 19.096,-11.364 1.673,-1.297 3.55,-2.481 5.655,-3.064 1.97,-0.549 3.762,-0.993 5.381,-1.335 6.319,-1.34 13.009,-2.764 20.063,-4.264 15.136,-3.221 30.027,-7.02 44.676,-11.398 26.285,-7.852 51.882,-17.881 75.614,-30.94 7.164,-3.943 14.198,-8.389 21.095,-13.342 12.465,-8.951 23.226,-19.702 32.284,-32.254 1.5,-2.083 3.026,-4.167 4.569,-6.259 0.638,-0.866 1.416,-1.681 2.328,-2.442 0.216,-0.182 0.55,-0.026 0.546,0.258 -0.009,0.612 -0.136,1.22 -0.381,1.821 -2.62,6.424 -6.733,12.441 -11.412,17.826 -12.295,14.141 -27.494,26.553 -43.082,37.435 -30.52,21.312 -63.632,37.735 -99.338,49.264 m 76.552,-4.695 c -19.751,9.53 -40.753,16.33 -62.317,21.147 -12.862,2.87 -25.525,5.013 -37.989,6.424 -5.719,0.647 -11.966,0.964 -18.733,0.951 -0.329,0 -0.633,-0.097 -0.917,-0.296 -0.131,-0.089 -0.16,-0.27 -0.067,-0.397 0.312,-0.435 0.655,-0.714 1.031,-0.845 2.828,-0.985 5.769,-1.779 8.829,-2.392 8.517,-1.699 16.987,-3.592 25.411,-5.676 18.783,-4.653 37.427,-10.772 55.935,-18.354 17.562,-7.197 34.967,-16.372 52.216,-27.521 9.007,-5.819 17.587,-12.56 25.423,-19.706 7.49,-6.834 14.557,-13.866 21.996,-20.637 0.135,-0.122 0.249,-0.105 0.338,0.056 0.055,0.1 0.076,0.211 0.055,0.329 -0.596,3.499 -2.705,7.049 -4.582,10.097 -3.436,5.582 -7.308,10.89 -11.615,15.924 -10.862,12.69 -23.47,23.286 -37.82,31.784 -4.907,2.912 -10.638,5.946 -17.194,9.112 M -54.857,3.761 c 21.327,7.126 43.762,12.222 65.884,15.439 5.706,0.832 11.903,1.681 18.593,2.548 1.213,0.156 2.477,0.376 3.8,0.659 0.41,0.089 0.777,0.322 1.031,0.659 3.639,4.839 7.021,9.26 10.149,13.27 3.448,4.421 7.907,9.623 13.373,15.612 1.102,1.209 2.168,2.641 3.186,4.294 1.204,1.956 2.769,3.892 4.683,5.815 0.431,0.435 0.829,0.904 1.192,1.411 0.135,0.195 0.047,0.465 -0.181,0.533 -0.351,0.105 -0.71,0.139 -1.082,0.101 -1.315,-0.139 -2.583,-0.359 -3.804,-0.659 -3.648,-0.887 -8.23,-2.126 -13.75,-3.719 -28.119,-8.11 -55.411,-17.538 -81.882,-28.286 -25.804,-10.48 -50.914,-22.44 -74.541,-36.796 -8.825,-5.36 -17.059,-10.972 -24.705,-16.833 -9.599,-7.367 -18.728,-16.131 -27.38,-26.295 -3.935,-4.623 -7.545,-9.788 -10.82,-15.494 -1.488,-2.585 -2.532,-4.948 -3.132,-7.086 -0.106,-0.373 0.232,-0.715 0.604,-0.622 0.237,0.064 0.456,0.157 0.663,0.288 2.592,1.635 4.951,3.402 7.077,5.303 4.767,4.256 10.08,9.01 15.938,14.259 13.179,11.808 27.351,22.957 42.612,31.874 16.506,9.64 33.999,17.551 52.492,23.725"
       style="fill:none;stroke:#f1af93;stroke-width:1;stroke-linecap:butt;stroke-linejoin:miter;stroke-miterlimit:10;stroke-dasharray:none;stroke-opacity:1"
       transform="matrix(1.3333333,0,0,-1.3333333,961.7148,708.4516)"
       clip-path="url(#clipPath18)" />
    <path
       id="path19"
       d="M 0,0 C -0.08,-0.122 -0.19,-0.173 -0.321,-0.152 -0.465,-0.131 -0.566,-0.051 -0.625,0.08 -2.87,5.186 -7.16,7.417 -12.553,8.021 -15.719,8.372 -19.079,8.317 -22.642,7.848 -28.563,7.066 -32.854,3.96 -35.512,-1.462"
       style="fill:none;stroke:#b7e5e5;stroke-width:1;stroke-linecap:butt;stroke-linejoin:miter;stroke-miterlimit:10;stroke-dasharray:none;stroke-opacity:1"
       transform="matrix(1.3333333,0,0,-1.3333333,742.4648,845.5532)"
       clip-path="url(#clipPath20)" />
    <path
       id="path21"
       d="m 0,0 c -5.989,3.871 -11.796,7.776 -17.431,11.71 -20.541,14.352 -42.355,27.103 -64.726,38.307 -12.997,6.511 -26.024,12.715 -39.109,18.168 -12.299,5.122 -25.043,9.699 -38.234,13.726 -14.113,4.315 -29.164,8.393 -45.145,12.235 -16.314,3.926 -32.177,6.529 -47.584,7.818 -5.642,0.473 -10.857,0.786 -15.638,0.938 -10.342,0.334 -20.715,0.334 -31.121,0.009 -0.486,-0.013 -0.794,-0.533 -0.574,-0.968 0.367,-0.723 0.815,-1.382 1.339,-1.978 14.181,-16.098 28.272,-31.853 42.203,-48.013 7.921,-9.188 14.84,-18.062 20.762,-26.625 3.368,-4.877 6.2,-9.965 8.487,-15.261 1.644,-3.798 2.962,-8.363 3.195,-12.593 0.127,-2.329 0.27,-4.619 0.279,-6.969 0.029,-7.7 0.106,-13.473 -0.203,-19.086 -0.059,-1.124 -0.097,-2.488 -0.114,-4.095 -0.055,-6.347 -0.359,-11.406 -0.338,-18.011 0.008,-1.678 0.9,-2.147 2.337,-2.553 0.575,-0.16 1.129,-0.275 1.657,-0.342 11.378,-1.45 21.636,-2.967 30.774,-4.548 19.65,-3.402 39.735,-6.555 58.324,-9.948 3.812,-0.697 7.789,-1.487 11.935,-2.379 24.688,-5.304 48.759,-10.866 72.221,-16.681 7.802,-1.935 15.896,-4.07 23.766,-6.445 5.423,-1.636 10.871,-3.182 16.345,-4.64 2.794,-0.744 5.38,-1.911 7.76,-3.504 1.906,-1.276 3.056,-2.992 5.511,-3.457 0.951,-0.177 1.906,-0.325 2.866,-0.448 7.164,-0.899 14.18,-1.111 21.048,-0.63 2.498,0.174 4.713,0.686 6.654,1.531 2.836,1.238 5.172,3.575 8.153,4.559 9.484,3.124 18.956,6.116 28.419,8.973 4.725,1.429 9.485,2.725 14.282,3.892 18.834,4.573 37.583,9.864 56.442,13.959 9.574,2.083 19.882,4.175 30.927,6.285 2.768,0.528 5.571,1.026 8.399,1.496 12.489,2.066 25.016,4.247 37.583,6.542 2.996,0.548 5.757,1.018 8.279,1.402 11.285,1.728 22.465,3.179 33.332,4.835 0.756,0.114 2.235,0.439 2.366,1.349 0.106,0.739 0.178,1.419 0.225,2.032 0.325,4.497 0.676,9.42 1.056,14.774 0.431,6.099 1.259,12.59 2.486,19.47 2.903,16.284 8.094,31.54 15.566,45.761 3.902,7.429 8.314,14.589 13.234,21.481 9.856,13.816 21.061,26.562 33.619,38.247 3.495,3.258 6.779,6.369 9.847,9.331 0.173,0.165 0.309,0.364 0.406,0.588 0.157,0.359 0.038,0.524 -0.355,0.49 C 331.051,99.842 320.763,98.727 310.56,97.091 294.576,94.526 277.837,91.771 260.348,88.816 239.764,85.343 218.86,81.577 198.699,76.413 185.41,73.011 170.815,68.945 154.915,64.216 128.608,56.397 103.282,45.925 78.941,32.803 65.72,25.674 52.77,17.458 41.463,7.564 39.646,5.976 37.93,4.336 36.32,2.642 36.104,2.413 35.833,2.02 35.512,1.462"
       style="fill:none;stroke:#f1af93;stroke-width:1;stroke-linecap:butt;stroke-linejoin:miter;stroke-miterlimit:10;stroke-dasharray:none;stroke-opacity:1"
       transform="matrix(1.3333333,0,0,-1.3333333,695.1152,847.5024)"
       clip-path="url(#clipPath22)" />
    <path
       id="path23"
       d="m 0,0 c 0,0.786 -0.639,1.424 -1.425,1.424 h -27.143 c -0.786,0 -1.425,-0.638 -1.425,-1.424 v -1.843 c 0,-0.786 0.639,-1.425 1.425,-1.425 H -1.425 C -0.639,-3.268 0,-2.629 0,-1.843 V 0 m -28.687,5.024 h 27.288 c 0.637,0 1.158,0.52 1.158,1.159 v 1.703 c 0,1.069 -0.833,1.939 -1.856,1.939 h -25.892 c -1.023,0 -1.856,-0.87 -1.856,-1.939 V 6.183 c 0,-0.639 0.52,-1.159 1.158,-1.159 m 26.692,47.341 c 0,0.812 -0.655,1.467 -1.467,1.467 h -28.073 c -0.812,0 -1.467,-0.655 -1.467,-1.467 v -1.859 c 0,-0.812 0.655,-1.466 1.467,-1.466 h 28.073 c 0.812,0 1.467,0.654 1.467,1.466 v 1.859 m 0.45,8.397 c -0.003,0.69 -0.564,1.248 -1.254,1.248 l -29.527,-0.051 c -0.689,0 -1.251,-0.562 -1.249,-1.254 l 0.005,-2.392 c 0.002,-0.69 0.564,-1.248 1.253,-1.249 l 29.527,0.052 c 0.688,0 1.251,0.562 1.249,1.253 l -0.004,2.393 M -36.548,93.41 c -0.279,-1.137 -0.131,-2.388 0.444,-3.757 0.224,-0.533 0.625,-0.799 1.204,-0.795 10.715,0.047 21.742,0.08 33.074,0.111 0.68,0.004 1.095,0.329 1.238,0.984 0.233,1.044 0.207,2.079 -0.067,3.114 -0.161,0.605 -0.288,1.205 -0.381,1.805"
       style="fill:none;stroke:#a89578;stroke-width:1;stroke-linecap:butt;stroke-linejoin:miter;stroke-miterlimit:10;stroke-dasharray:none;stroke-opacity:1"
       transform="matrix(1.3333333,0,0,-1.3333333,743.8464,972.04933)"
       clip-path="url(#clipPath24)" />
    <path
       id="path25"
       d="m 0,0 c -3.014,-0.072 -7.025,0.194 -9.604,1.792 -4.619,2.857 -2.138,8.291 0.162,11.875 1.458,2.27 2.945,4.32 4.463,6.141 3.723,4.467 7.498,8.947 11.323,13.435 3.52,4.129 7.142,8.955 9.602,13.887 2.03,4.057 3.496,9.644 0.525,13.68 -1.826,2.481 -4.988,3.825 -7.942,4.624 -2.697,0.731 -5.355,1.259 -7.98,1.593 -5.532,0.701 -10.943,1.445 -16.222,2.231 -10.592,1.576 -21.817,4.894 -30.271,11.791 -3.174,2.591 -6.154,5.874 -8.939,9.851 -3.787,5.401 -7.338,11.043 -11.379,16.136 -5.439,6.854 -11.336,13.815 -17.692,20.877 -19.477,21.646 -43.518,39.852 -69.109,53.194 -35.407,18.46 -72.944,27.449 -112.611,26.963 -45.829,-0.562 -91.456,-13.722 -128.899,-39.916 -9.929,-6.944 -19.168,-14.927 -28.682,-24.085 -13.479,-12.983 -26.387,-27.575 -36.151,-43.22 -2.925,-4.687 -5.355,-9.345 -7.295,-13.972 -2.261,-5.401 -4.421,-9.762 -8.305,-13.706 -6.907,-7.015 -16.336,-8.997 -26.002,-9.052 -4.646,-0.03 -9.143,-0.025 -13.488,0.005 -3.149,0.021 -6.374,-0.267 -9.666,-0.871 -6.442,-1.175 -11.602,-4.501 -14.882,-10.253 -2.257,-3.956 -2.883,-8.452 -3.512,-13.059 -1.843,-13.443 -11.941,-21.113 -24.375,-24.955 -7.6,-2.345 -15.685,-3.664 -23.445,-5.342 -7.004,-1.509 -17.608,-4.5 -19.062,-12.915 -0.804,-4.624 1.246,-10.003 3.436,-14.187 1.669,-3.199 3.567,-6.292 5.693,-9.29 4.43,-6.241 9.755,-12.699 15.973,-19.372 9.687,-10.392 19.243,-19.474 29.611,-28.996 6.366,-5.844 12.537,-11.837 17.79,-18.653 5.085,-6.606 8.462,-13.723 10.136,-21.351 2.683,-12.214 -1.251,-24.326 -0.993,-36.464 0.172,-8.151 2.81,-15.234 7.907,-21.256 5.089,-6.019 11.936,-10.397 19.122,-13.376 6.809,-2.824 14.057,-4.869 21.75,-6.132 19.734,-3.25 39.667,-7.07 59.807,-11.462 27.375,-5.967 54.219,-12.382 80.534,-19.245 10.926,-2.849 24.282,-6.433 40.06,-10.756 7.325,-2.008 14.633,-4.53 21.737,-6.564 12.232,-3.499 24.752,-3.917 37.554,-1.254 10.791,2.244 21.108,6.533 31.269,11.816 3.998,2.079 8.36,3.893 12.662,5.376 18.708,6.466 39.642,11.267 59.267,14.736 6.445,1.137 12.925,2.257 19.43,3.356 8.863,1.5 19.713,3.642 32.548,6.427 16.367,3.555 32.461,7.067 48.286,10.537 7.24,1.588 15.254,3.097 24.041,4.521 10.782,1.754 18.961,8.149 21.927,19.052 0.977,3.584 1.632,7.557 1.957,11.913 0.309,4.112 0.698,8.893 1.171,14.335 0.609,6.965 2.004,14.298 4.071,21.131 4.032,13.329 10.008,25.982 17.933,37.964 10.955,16.57 24.337,32.292 36.751,48.017 5.258,6.664 10.042,13.651 14.349,20.953 1.864,3.165 3.302,6.217 4.307,9.154 1.192,3.487 1.399,7.404 -1.699,9.973 C 87.444,8.879 85.521,9.741 83.176,10.21 76.227,11.605 67.964,10.764 60.644,9.716 44.642,7.421 28.918,3.554 12.776,1.116 8.521,0.469 4.265,0.097 0,0"
       style="fill:#ffffff;fill-opacity:1;fill-rule:nonzero;stroke:none"
       transform="matrix(1.3333333,0,0,-1.3333333,1065.4987,696.5564)"
       clip-path="url(#clipPath26)" />
    <path
       id="path27"
       d="m 0,0 c -0.08,-0.122 -0.19,-0.173 -0.321,-0.152 -0.144,0.021 -0.245,0.101 -0.304,0.232 -2.245,5.106 -6.535,7.337 -11.928,7.941 -3.166,0.351 -6.526,0.296 -10.089,-0.173 -5.921,-0.782 -10.212,-3.888 -12.87,-9.31 -5.989,3.871 -11.797,7.776 -17.43,11.71 -20.542,14.353 -42.356,27.103 -64.727,38.307 -12.997,6.511 -26.024,12.716 -39.109,18.168 -12.3,5.122 -25.043,9.699 -38.234,13.726 -14.113,4.315 -29.164,8.393 -45.145,12.235 -16.315,3.926 -32.177,6.529 -47.584,7.818 -5.642,0.473 -10.858,0.786 -15.638,0.938 -10.343,0.334 -20.715,0.334 -31.121,0.009 -0.486,-0.013 -0.794,-0.533 -0.575,-0.968 0.368,-0.723 0.816,-1.382 1.34,-1.978 14.181,-16.098 28.272,-31.853 42.203,-48.013 7.921,-9.188 14.84,-18.062 20.761,-26.625 3.369,-4.877 6.201,-9.965 8.487,-15.261 1.645,-3.798 2.963,-8.363 3.196,-12.593 0.127,-2.329 0.27,-4.619 0.279,-6.969 0.029,-7.7 0.105,-13.474 -0.203,-19.086 -0.059,-1.124 -0.097,-2.488 -0.114,-4.095 -0.055,-6.347 -0.359,-11.406 -0.338,-18.011 0.008,-1.678 0.9,-2.147 2.337,-2.553 0.575,-0.16 1.128,-0.275 1.657,-0.342 11.378,-1.45 21.636,-2.967 30.774,-4.548 19.65,-3.402 39.735,-6.554 58.323,-9.948 3.812,-0.697 7.79,-1.487 11.936,-2.379 24.688,-5.304 48.759,-10.866 72.221,-16.681 7.802,-1.935 15.896,-4.07 23.766,-6.445 5.423,-1.636 10.871,-3.182 16.345,-4.64 2.793,-0.744 5.38,-1.911 7.76,-3.503 1.906,-1.277 3.055,-2.993 5.511,-3.457 0.951,-0.178 1.906,-0.326 2.866,-0.449 7.164,-0.899 14.18,-1.111 21.048,-0.63 2.498,0.174 4.713,0.686 6.653,1.531 2.836,1.238 5.173,3.575 8.154,4.559 9.484,3.124 18.956,6.115 28.419,8.973 4.725,1.429 9.485,2.725 14.282,3.892 18.834,4.573 37.583,9.864 56.442,13.959 9.574,2.083 19.882,4.175 30.927,6.285 2.769,0.528 5.57,1.026 8.398,1.496 12.49,2.066 25.017,4.247 37.583,6.542 2.997,0.549 5.757,1.018 8.28,1.402 11.285,1.729 22.465,3.179 33.332,4.835 0.756,0.114 2.235,0.439 2.366,1.349 0.105,0.739 0.178,1.42 0.225,2.032 0.325,4.497 0.675,9.42 1.056,14.774 0.431,6.099 1.259,12.59 2.486,19.47 2.903,16.284 8.093,31.54 15.566,45.761 3.901,7.429 8.313,14.589 13.233,21.481 9.857,13.816 21.062,26.562 33.62,38.247 3.495,3.258 6.779,6.369 9.847,9.331 0.173,0.165 0.309,0.364 0.405,0.588 0.158,0.359 0.039,0.524 -0.354,0.49 C 295.539,98.38 285.251,97.265 275.048,95.629 259.063,93.064 242.326,90.309 224.836,87.355 204.252,83.881 183.348,80.115 163.187,74.951 149.897,71.549 135.303,67.483 119.402,62.754 93.096,54.936 67.77,44.463 43.429,31.341 30.208,24.212 17.258,15.996 5.951,6.103 4.134,4.514 2.418,2.874 0.808,1.18 0.592,0.951 0.321,0.558 0,0 M 164.437,102.826 C 151.406,100.447 138.211,97.375 124.851,93.601 108.523,88.994 93.248,83.128 79.021,76.007 76.109,74.549 73.29,73.049 70.572,71.515 69.486,70.902 66.878,69.372 66.375,68.366 66.299,68.21 66.4,68.02 66.574,68.003 c 1.082,-0.127 2.172,-0.022 3.267,0.321 4.375,1.365 8.259,2.637 11.653,3.821 15.178,5.291 30.406,10.801 45.719,15.97 12.452,4.201 24.558,7.531 36.311,9.987 8.217,1.72 16.269,3.41 24.16,5.071 0.934,0.199 1.953,0.524 2.84,0.875 1.15,0.456 1.124,0.832 -0.076,1.128 -0.909,0.224 -1.847,0.325 -2.823,0.308 -2.245,-0.037 -4.384,-0.139 -6.421,-0.299 -4.475,-0.351 -10.063,-1.137 -16.767,-2.359 M -119.542,65.417 c 17.236,-8.352 33.534,-18.739 49.354,-29.846 1.497,-1.048 3.082,-2.019 4.76,-2.916 0.194,-0.105 0.418,0.073 0.364,0.283 -0.368,1.451 -2.279,3.466 -3.454,4.616 -2.181,2.13 -4.417,4.12 -6.711,5.967 -7.063,5.684 -14.811,11.149 -23.243,16.397 -17.553,10.916 -36.429,20.096 -56.629,27.533 -14.695,5.414 -28.732,9.763 -42.101,13.051 -22.532,5.545 -45.415,9.416 -68.645,11.609 -1.331,0.127 -2.603,0.211 -3.812,0.249 -3.166,0.102 -6.306,0.271 -9.586,0.305 -10.093,0.101 -19.84,0.135 -29.24,0.101 -1.669,-0.004 -3.326,-0.152 -4.962,-0.435 -0.507,-0.089 -0.908,-0.431 -1.204,-1.018 -0.224,-0.444 0.042,-0.977 0.532,-1.062 0.807,-0.143 1.61,-0.308 2.443,-0.346 10.647,-0.461 21.391,-1.137 32.237,-2.032 25.495,-2.105 50.47,-6.429 75.564,-12.548 29.066,-7.092 57.575,-16.942 84.333,-29.908 m -71.506,64.896 c -26.738,8.634 -52.131,14.69 -79.089,16.689 -4.645,0.342 -9.112,0.668 -13.394,0.972 -0.152,0.013 -0.287,-0.101 -0.3,-0.253 -0.017,-0.182 0.055,-0.317 0.211,-0.414 1.784,-1.091 3.678,-2.034 5.685,-2.824 3.327,-1.314 6.594,-2.683 9.793,-4.112 6.962,-3.106 13.327,-6.892 19.096,-11.364 1.674,-1.297 3.551,-2.481 5.655,-3.064 1.97,-0.549 3.762,-0.993 5.381,-1.335 6.319,-1.34 13.01,-2.764 20.064,-4.264 15.135,-3.22 30.026,-7.02 44.675,-11.398 26.286,-7.852 51.882,-17.881 75.615,-30.94 7.164,-3.942 14.197,-8.389 21.095,-13.342 12.464,-8.951 23.225,-19.702 32.283,-32.254 1.501,-2.083 3.026,-4.167 4.569,-6.259 0.638,-0.866 1.416,-1.681 2.329,-2.442 0.215,-0.182 0.549,-0.025 0.545,0.258 -0.008,0.612 -0.135,1.22 -0.38,1.821 -2.621,6.424 -6.733,12.441 -11.412,17.826 -12.295,14.141 -27.495,26.553 -43.082,37.435 -30.521,21.312 -63.632,37.735 -99.339,49.264 m 76.553,-4.695 c -19.751,9.53 -40.753,16.33 -62.317,21.148 -12.862,2.869 -25.525,5.012 -37.99,6.423 -5.718,0.647 -11.965,0.964 -18.732,0.951 -0.33,0 -0.634,-0.097 -0.917,-0.296 -0.131,-0.089 -0.161,-0.27 -0.068,-0.397 0.313,-0.435 0.655,-0.714 1.032,-0.845 2.827,-0.985 5.769,-1.779 8.829,-2.392 8.516,-1.699 16.987,-3.592 25.41,-5.676 18.784,-4.653 37.427,-10.772 55.936,-18.354 17.562,-7.197 34.967,-16.372 52.216,-27.521 9.007,-5.819 17.587,-12.559 25.423,-19.706 7.489,-6.834 14.556,-13.866 21.995,-20.637 0.136,-0.122 0.25,-0.105 0.338,0.055 0.055,0.102 0.076,0.212 0.055,0.33 -0.596,3.499 -2.705,7.049 -4.581,10.097 -3.437,5.582 -7.308,10.891 -11.615,15.924 -10.863,12.691 -23.471,23.286 -37.82,31.784 -4.907,2.912 -10.638,5.947 -17.194,9.112 M 109.58,106.587 c 21.327,7.126 43.763,12.223 65.885,15.439 5.706,0.832 11.902,1.682 18.593,2.548 1.213,0.156 2.476,0.376 3.799,0.659 0.411,0.089 0.778,0.322 1.032,0.66 3.638,4.838 7.02,9.259 10.148,13.27 3.448,4.42 7.907,9.623 13.373,15.611 1.103,1.209 2.168,2.642 3.187,4.294 1.205,1.956 2.768,3.892 4.682,5.815 0.432,0.435 0.829,0.905 1.193,1.411 0.134,0.195 0.047,0.465 -0.182,0.533 -0.351,0.106 -0.71,0.139 -1.082,0.101 -1.314,-0.139 -2.582,-0.359 -3.804,-0.659 -3.647,-0.887 -8.229,-2.125 -13.75,-3.719 -28.119,-8.11 -55.411,-17.538 -81.882,-28.285 C 104.969,123.784 79.858,111.824 56.231,97.468 47.406,92.108 39.173,86.496 31.526,80.635 21.928,73.269 12.799,64.504 4.146,54.34 0.212,49.717 -3.398,44.552 -6.674,38.847 -8.161,36.261 -9.205,33.898 -9.806,31.76 c -0.105,-0.372 0.233,-0.715 0.605,-0.621 0.236,0.063 0.456,0.156 0.663,0.287 2.592,1.636 4.95,3.402 7.076,5.303 4.768,4.256 10.08,9.01 15.939,14.259 13.178,11.808 27.35,22.957 42.612,31.874 16.506,9.64 33.999,17.551 52.491,23.725 m -215.123,30.699 c 0.372,-0.173 0.778,-0.435 1.213,-0.794 0.393,-0.325 0.79,-0.621 1.192,-0.879 5.499,-3.601 11.171,-7.328 17.008,-11.183 5.575,-3.68 10.398,-7.548 14.463,-11.609 10.03,-10.02 18.885,-22.834 26.653,-35.364 3.618,-5.837 7.376,-11.947 11.277,-18.329 0.372,-0.612 0.778,-1.251 1.222,-1.919 0.249,-0.38 0.368,-0.342 0.355,0.114 -0.072,2.482 -0.153,5.233 -0.233,8.254 -0.101,3.77 -0.849,7.417 -1.665,11.069 -2.025,9.056 -4.552,17.635 -7.591,25.737 -4.78,12.745 -12.122,24.714 -20.275,36.091 -7.181,10.02 -15.17,19.681 -23.965,28.983 -13.715,14.512 -29.012,27.001 -45.881,37.469 -9.784,6.073 -19.26,11 -28.419,14.783 0.008,0.287 0.152,0.431 0.427,0.435 4.15,0.042 8.673,-1.403 12.519,-2.992 6.183,-2.566 11.872,-5.482 17.063,-8.753 10.803,-6.808 21.146,-13.933 31.028,-21.371 8.588,-6.462 16.111,-13.118 22.574,-19.96 3.745,-3.968 7.477,-8.207 11.192,-12.716 1.741,-2.114 3.347,-4.205 4.819,-6.272 7.079,-9.944 13.136,-20.129 18.174,-30.555 2.946,-6.09 5.178,-11.677 6.704,-16.77 1.356,-4.525 2.582,-9.369 3.672,-14.525 1.243,-5.853 2.422,-11.457 3.534,-16.807 0.275,-1.322 0.444,-1.31 0.511,0.038 0.228,4.632 0.212,9.209 0.372,14.166 0.11,3.313 -0.017,6.905 0.364,10.426 0.148,1.39 0.017,2.81 0.093,4.218 0.57,10.67 1.627,20.775 3.178,30.314 0.452,2.785 0.934,5.583 1.437,8.393 3.606,20.057 9.333,39.806 17.177,59.246 5.799,14.373 12.722,27.584 20.77,39.637 0.401,0.596 1.069,1.373 2.003,2.328 0.157,0.157 0.347,0.258 0.571,0.296 0.258,0.047 0.469,-0.063 0.63,-0.325 0.089,-0.144 0.122,-0.313 0.097,-0.477 -0.249,-1.771 -0.783,-3.415 -1.598,-4.924 -10.938,-19.846 -18.99,-40.939 -25.207,-62.635 -7.9,-27.581 -13.006,-55.617 -15.318,-84.109 -0.223,-2.751 -0.401,-5.566 -0.532,-8.436 -0.313,-6.884 -0.49,-13.683 -0.528,-20.395 -0.005,-0.126 0.021,-0.203 0.075,-0.224 0.14,-0.059 0.296,0.009 0.356,0.148 0.866,2.083 1.728,4.163 2.595,6.238 5.224,12.497 12.257,24.439 21.974,34.134 0.926,0.926 1.649,1.915 2.159,2.971 0.107,-0.3 0.372,-0.258 0.791,0.127 4.764,4.366 9.751,8.457 14.958,12.281 16.966,12.459 34.232,23.688 51.735,35.994 19.708,13.858 36.568,30.437 50.575,49.738 0.811,1.119 1.763,2.197 2.857,3.233 0.723,0.684 1.531,0.841 2.422,0.469 1.645,-0.681 3.39,-1.657 5.241,-2.925 0.207,-0.143 0.284,-0.338 0.233,-0.583 -0.187,-0.926 -0.402,-1.323 -0.652,-1.187 -4.332,-5.013 -8.592,-9.945 -12.777,-14.796 C 107.948,171.058 97.233,159.867 85.936,149.233 75.226,139.15 63.159,129.134 49.735,119.186 37.93,110.434 26.07,101.728 14.159,93.06 7.291,88.061 0.697,82.211 -5.621,75.509 -15.136,65.421 -22.211,53.363 -24.548,39.814 c -0.308,-1.795 -0.456,-3.499 -0.44,-5.113 0.005,-0.431 0.106,-0.457 0.304,-0.072 7.702,14.809 17.583,27.829 29.33,39.722 10.003,10.129 20.608,19.026 31.813,26.696 9.168,6.272 20.947,13.942 35.348,23.007 12.574,7.92 24.615,14.864 36.125,20.835 0.51,0.266 1.136,0.626 1.876,1.07 0.668,0.405 1.297,0.756 1.893,1.056 9.811,5.722 19.976,10.489 30.495,14.305 2.587,0.938 5.28,1.83 8.082,2.676 5.055,1.525 10.123,3.059 15.203,4.597 1.205,0.368 2.33,0.842 3.381,1.421 1.024,0.566 1.277,1.529 0.761,2.886 -0.705,1.851 -1.491,3.622 -2.362,5.308 -3.023,5.853 -6.32,11.491 -9.882,16.913 -4.514,6.876 -9.4,13.883 -14.633,19.732 -5.98,6.69 -12.895,13.79 -20.744,21.304 -25.926,24.82 -59.274,41.826 -94.613,50.24 -2.633,0.63 -5.338,1.23 -8.116,1.805 -10.135,2.1 -20.288,3.203 -30.461,3.3 -7.734,0.077 -15.706,0.106 -23.914,0.089 -2.76,-0.004 -5.457,-0.16 -8.094,-0.461 -11.594,-1.331 -21.666,-3.097 -30.208,-5.303 -36.155,-9.327 -69.714,-27.678 -96.342,-53.879 -3.153,-3.102 -6.466,-6.526 -9.941,-10.27 -7.997,-8.617 -15.554,-18.388 -22.667,-29.304 -5.081,-7.789 -9.35,-16.161 -13.103,-24.647 -0.207,-0.46 -0.372,-0.947 -0.499,-1.449 -0.148,-0.584 0.229,-1.175 0.821,-1.281 2.079,-0.385 4.07,-0.613 5.972,-0.689 3.03,-0.126 6.124,-0.317 9.277,-0.397 6.45,-0.165 13.158,-0.537 20.119,-1.116 14.561,-1.217 28.923,-5.439 42.981,-10.108 7.126,-2.367 13.977,-5.461 20.55,-9.281 3.444,-2.008 7.011,-4.045 10.693,-6.12 m 347.818,-25.538 c 4.265,0.097 8.521,0.469 12.777,1.115 16.141,2.439 31.865,6.306 47.867,8.6 7.32,1.049 15.583,1.89 22.532,0.495 2.346,-0.469 4.269,-1.331 5.774,-2.578 3.097,-2.569 2.89,-6.487 1.699,-9.974 -1.006,-2.937 -2.444,-5.988 -4.308,-9.154 C 324.31,92.95 319.525,85.964 314.268,79.3 301.854,63.574 288.472,47.853 277.517,31.282 269.592,19.301 263.615,6.647 259.583,-6.682 c -2.066,-6.833 -3.462,-14.166 -4.07,-21.13 -0.474,-5.443 -0.863,-10.223 -1.171,-14.335 -0.325,-4.357 -0.981,-8.33 -1.957,-11.914 -2.967,-10.903 -11.146,-17.297 -21.928,-19.051 -8.787,-1.424 -16.801,-2.933 -24.041,-4.522 -15.824,-3.47 -31.919,-6.981 -48.285,-10.536 -12.836,-2.785 -23.686,-4.928 -32.549,-6.428 -6.505,-1.098 -12.984,-2.218 -19.43,-3.355 -19.625,-3.47 -40.558,-8.271 -59.266,-14.736 -4.303,-1.484 -8.664,-3.297 -12.662,-5.376 -10.162,-5.284 -20.479,-9.573 -31.27,-11.817 -12.802,-2.662 -25.321,-2.244 -37.553,1.255 -7.105,2.033 -14.413,4.556 -21.737,6.564 -15.779,4.323 -29.135,7.907 -40.06,10.755 -26.315,6.864 -53.159,13.279 -80.535,19.245 -20.14,4.392 -40.072,8.212 -59.807,11.462 -7.692,1.264 -14.941,3.309 -21.75,6.132 -7.185,2.98 -14.033,7.358 -19.121,13.376 -5.098,6.023 -7.735,13.106 -7.908,21.257 -0.258,12.138 3.677,24.25 0.993,36.464 -1.674,7.628 -5.051,14.745 -10.136,21.351 -5.253,6.816 -11.424,12.808 -17.789,18.653 -10.368,9.521 -19.925,18.603 -29.612,28.996 -6.218,6.673 -11.543,13.131 -15.973,19.372 -2.126,2.997 -4.024,6.091 -5.693,9.29 -2.19,4.184 -4.239,9.563 -3.436,14.187 1.454,8.414 12.059,11.406 19.062,12.915 7.76,1.677 15.846,2.996 23.445,5.341 12.435,3.842 22.532,11.513 24.375,24.956 0.63,4.606 1.256,9.103 3.512,13.059 3.28,5.752 8.441,9.078 14.882,10.253 3.293,0.604 6.518,0.891 9.667,0.87 4.345,-0.03 8.842,-0.034 13.487,-0.004 9.666,0.055 19.096,2.037 26.002,9.052 3.884,3.943 6.044,8.305 8.305,13.706 1.941,4.627 4.371,9.284 7.296,13.971 9.763,15.645 22.672,30.238 36.15,43.221 9.514,9.158 18.753,17.141 28.682,24.084 37.444,26.194 83.07,39.354 128.9,39.916 39.667,0.487 77.204,-8.503 112.61,-26.962 25.592,-13.342 49.633,-31.548 69.109,-53.195 6.357,-7.061 12.253,-14.022 17.693,-20.877 4.041,-5.093 7.591,-10.734 11.379,-16.135 2.785,-3.977 5.764,-7.261 8.938,-9.852 8.454,-6.897 19.68,-10.214 30.272,-11.79 5.279,-0.786 10.689,-1.53 16.221,-2.232 2.625,-0.334 5.283,-0.862 7.981,-1.593 2.954,-0.799 6.115,-2.142 7.941,-4.623 2.972,-4.036 1.505,-9.623 -0.524,-13.681 -2.46,-4.931 -6.082,-9.757 -9.603,-13.886 -3.825,-4.489 -7.599,-8.969 -11.323,-13.435 -1.518,-1.822 -3.005,-3.871 -4.463,-6.141 -2.3,-3.584 -4.78,-9.018 -0.161,-11.875 2.578,-1.598 6.59,-1.864 9.603,-1.792"
       style="fill:#ffffff;fill-opacity:1;fill-rule:nonzero;stroke:none"
       transform="matrix(1.3333333,0,0,-1.3333333,742.4648,845.5532)"
       clip-path="url(#clipPath28)" />
    <path
       id="path29"
       d="m 0,0 15.166,40.022 c 0.013,0.038 0.033,0.063 0.063,0.084 0.03,0.021 0.059,0.042 0.084,0.063 0.039,0.035 0.064,0.081 0.085,0.136 1.095,3.318 2.35,6.745 3.757,10.278 0.25,-0.135 0.465,0.262 0.652,1.188 0.05,0.245 -0.026,0.439 -0.233,0.583 -1.851,1.268 -3.596,2.244 -5.241,2.924 -0.892,0.372 -1.699,0.216 -2.422,-0.469 C 10.816,53.773 9.865,52.696 9.054,51.576 -4.953,32.275 -21.813,15.696 -41.521,1.838 -59.024,-10.468 -76.29,-21.697 -93.256,-34.155 c -5.207,-3.825 -10.194,-7.916 -14.958,-12.282 -0.419,-0.384 -0.684,-0.426 -0.791,-0.126 0.254,1.449 0.368,2.874 0.343,4.276 -0.165,8.668 -0.38,17.332 -0.647,25.991 -0.215,7.037 -0.266,14.863 0.14,21.034 1.162,17.686 3.774,35.415 7.827,53.186 0.728,3.186 1.463,6.368 2.202,9.547 0.174,0.735 0.457,1.403 0.588,2.151 0.093,0.536 0.22,1.077 0.376,1.618 0.292,1.01 0.52,2.041 0.681,3.094 0.147,0.955 0.397,1.973 0.757,3.055 0.891,2.692 1.61,5.477 2.159,8.355 0.815,1.509 1.349,3.153 1.598,4.924 0.025,0.165 -0.008,0.333 -0.097,0.478 -0.161,0.261 -0.372,0.371 -0.63,0.325 -0.225,-0.038 -0.414,-0.14 -0.571,-0.296 -0.934,-0.955 -1.602,-1.733 -2.003,-2.329 -8.048,-12.053 -14.971,-25.263 -20.77,-39.637 -7.844,-19.44 -13.572,-39.188 -17.177,-59.246 -0.503,-2.81 -0.985,-5.608 -1.437,-8.393 -1.551,-9.538 -2.608,-19.643 -3.178,-30.314 -0.076,-1.407 0.054,-2.827 -0.093,-4.218 -0.381,-3.52 -0.254,-7.112 -0.364,-10.426 -0.16,-4.957 -0.144,-9.534 -0.372,-14.166 -0.067,-1.347 -0.237,-1.36 -0.511,-0.038 -1.112,5.351 -2.291,10.954 -3.534,16.808 -1.09,5.155 -2.316,9.999 -3.673,14.525 -1.526,5.092 -3.757,10.679 -6.703,16.769 -5.038,10.426 -11.095,20.611 -18.175,30.555 -1.471,2.067 -3.077,4.159 -4.818,6.272 -3.715,4.509 -7.447,8.748 -11.192,12.716 -6.463,6.843 -13.986,13.499 -22.575,19.96 -9.881,7.438 -20.224,14.564 -31.027,21.372 -5.191,3.271 -10.88,6.187 -17.063,8.752 -3.847,1.589 -8.369,3.034 -12.519,2.992 -0.275,-0.004 -0.419,-0.148 -0.428,-0.435 -0.308,0.106 -0.456,-0.063 -0.443,-0.507 0.004,-0.144 0.055,-0.27 0.144,-0.38 0.287,-0.36 0.6,-0.677 0.938,-0.955 2.595,-2.143 5.029,-4.223 7.303,-6.238 18.171,-16.106 31.599,-35.339 40.276,-57.708 1.496,-3.846 2.722,-8.127 4.184,-12.07 0.389,-1.044 1.137,-2.565 2.245,-4.565 -3.682,2.076 -7.249,4.113 -10.693,6.12 -6.573,3.82 -13.424,6.914 -20.55,9.281 -14.058,4.669 -28.42,8.891 -42.981,10.109 -6.961,0.578 -13.669,0.95 -20.119,1.115 -3.153,0.081 -6.247,0.271 -9.277,0.397 -1.902,0.077 -3.893,0.305 -5.972,0.689 -0.592,0.106 -0.969,0.698 -0.821,1.281 0.127,0.503 0.292,0.989 0.499,1.449 3.753,8.487 8.022,16.859 13.103,24.647 7.113,10.916 14.67,20.687 22.667,29.305 3.474,3.744 6.788,7.167 9.941,10.269 26.628,26.202 60.187,44.552 96.342,53.879 8.542,2.206 18.614,3.973 30.208,5.304 2.637,0.3 5.334,0.456 8.094,0.461 8.208,0.016 16.179,-0.013 23.914,-0.089 10.173,-0.097 20.326,-1.2 30.461,-3.301 2.778,-0.575 5.483,-1.175 8.115,-1.805 35.339,-8.414 68.688,-25.42 94.614,-50.24 7.848,-7.514 14.763,-14.614 20.744,-21.304 5.232,-5.849 10.119,-12.856 14.633,-19.732 3.562,-5.422 6.859,-11.06 9.882,-16.913 0.871,-1.686 1.657,-3.457 2.362,-5.308 0.516,-1.356 0.263,-2.32 -0.761,-2.886 C 56.109,22.42 54.984,21.946 53.78,21.579 48.7,20.041 43.632,18.506 38.577,16.981 35.774,16.136 33.082,15.244 30.495,14.306 19.976,10.489 9.811,5.722 0,0"
       style="fill:#6ecbca;fill-opacity:1;fill-rule:nonzero;stroke:none"
       transform="matrix(1.3333333,0,0,-1.3333333,891.39973,649.5336)"
       clip-path="url(#clipPath30)" />
    <path
       id="path31"
       d="m 0,0 c -0.549,-2.878 -1.268,-5.663 -2.159,-8.355 -0.36,-1.082 -0.61,-2.1 -0.757,-3.055 -0.161,-1.053 -0.389,-2.084 -0.681,-3.094 -0.156,-0.541 -0.283,-1.082 -0.376,-1.619 -0.131,-0.748 -0.414,-1.415 -0.588,-2.15 -0.739,-3.179 -1.474,-6.361 -2.202,-9.547 -4.052,-17.771 -6.665,-35.5 -7.827,-53.186 -0.406,-6.171 -0.355,-13.997 -0.139,-21.034 0.266,-8.659 0.481,-17.323 0.646,-25.991 0.025,-1.403 -0.089,-2.827 -0.343,-4.277 -0.511,-1.056 -1.233,-2.045 -2.159,-2.97 -9.717,-9.696 -16.75,-21.638 -21.975,-34.135 -0.866,-2.075 -1.728,-4.154 -2.594,-6.237 -0.06,-0.14 -0.216,-0.207 -0.356,-0.149 -0.054,0.022 -0.08,0.098 -0.075,0.224 0.038,6.712 0.215,13.512 0.528,20.395 0.131,2.87 0.308,5.685 0.532,8.436 2.312,28.493 7.418,56.529 15.318,84.109 C -18.99,-40.938 -10.938,-19.846 0,0"
       style="fill:#e25e26;fill-opacity:1;fill-rule:nonzero;stroke:none"
       transform="matrix(1.3333333,0,0,-1.3333333,765.29427,535.20813)"
       clip-path="url(#clipPath32)" />
    <path
       id="path33"
       d="m 0,0 c 9.159,-3.782 18.635,-8.71 28.42,-14.783 16.869,-10.468 32.165,-22.956 45.88,-37.469 8.796,-9.302 16.784,-18.962 23.965,-28.983 8.153,-11.376 15.495,-23.345 20.276,-36.091 3.038,-8.101 5.566,-16.68 7.59,-25.737 0.816,-3.651 1.564,-7.299 1.666,-11.068 0.08,-3.022 0.161,-5.773 0.232,-8.254 0.013,-0.456 -0.106,-0.494 -0.355,-0.115 -0.444,0.668 -0.849,1.307 -1.221,1.919 -3.902,6.382 -7.659,12.493 -11.277,18.33 -7.769,12.53 -16.623,25.343 -26.653,35.364 -4.066,4.061 -8.889,7.928 -14.464,11.609 -5.837,3.854 -11.509,7.582 -17.008,11.182 -0.401,0.258 -0.799,0.554 -1.192,0.879 -0.435,0.36 -0.84,0.621 -1.213,0.795 -1.107,1.999 -1.855,3.52 -2.244,4.564 -1.463,3.943 -2.688,8.224 -4.184,12.07 -8.677,22.369 -22.106,41.602 -40.276,57.708 -2.274,2.016 -4.709,4.095 -7.303,6.238 -0.339,0.279 -0.651,0.595 -0.939,0.955 -0.089,0.11 -0.139,0.236 -0.143,0.38 C -0.456,-0.063 -0.308,0.106 0,0"
       style="fill:#e25e26;fill-opacity:1;fill-rule:nonzero;stroke:none"
       transform="matrix(1.3333333,0,0,-1.3333333,528.87893,552.60853)"
       clip-path="url(#clipPath34)" />
    <path
       id="path35"
       d="m 0,0 c -1.407,-3.533 -2.662,-6.96 -3.757,-10.278 -0.021,-0.055 -0.047,-0.101 -0.085,-0.136 -0.025,-0.021 -0.054,-0.042 -0.085,-0.063 -0.029,-0.021 -0.05,-0.046 -0.062,-0.084 l -15.166,-40.022 c -0.596,-0.3 -1.226,-0.65 -1.894,-1.056 -0.739,-0.444 -1.365,-0.803 -1.876,-1.069 -11.51,-5.972 -23.551,-12.916 -36.125,-20.835 -14.4,-9.065 -26.179,-16.736 -35.347,-23.008 -11.206,-7.67 -21.81,-16.566 -31.814,-26.696 -11.746,-11.893 -21.628,-24.913 -29.329,-39.722 -0.198,-0.385 -0.3,-0.359 -0.304,0.072 -0.017,1.615 0.131,3.318 0.439,5.114 2.338,13.549 9.413,25.606 18.927,35.694 6.319,6.702 12.913,12.552 19.781,17.551 11.911,8.668 23.77,17.374 35.576,26.126 13.424,9.949 25.49,19.964 36.2,30.048 11.298,10.633 22.013,21.824 32.144,33.568 C -8.593,-9.944 -4.332,-5.012 0,0"
       style="fill:#e25e26;fill-opacity:1;fill-rule:nonzero;stroke:none"
       transform="matrix(1.3333333,0,0,-1.3333333,916.94013,582.0896)"
       clip-path="url(#clipPath36)" />
    <path
       id="path37"
       d="m 0,0 c -18.492,-6.174 -35.985,-14.085 -52.491,-23.725 -15.262,-8.917 -29.434,-20.067 -42.613,-31.874 -5.858,-5.249 -11.17,-10.003 -15.938,-14.259 -2.126,-1.901 -4.484,-3.668 -7.076,-5.304 -0.207,-0.131 -0.427,-0.223 -0.663,-0.287 -0.372,-0.094 -0.71,0.249 -0.605,0.621 0.601,2.139 1.645,4.501 3.132,7.087 3.275,5.705 6.886,10.87 10.82,15.493 8.653,10.164 17.782,18.929 27.38,26.295 7.647,5.862 15.88,11.474 24.705,16.833 23.627,14.356 48.738,26.316 74.541,36.797 26.471,10.747 53.763,20.176 81.882,28.286 5.521,1.593 10.103,2.831 13.75,3.719 1.222,0.3 2.489,0.52 3.804,0.659 0.372,0.038 0.731,0.004 1.082,-0.101 0.228,-0.068 0.316,-0.339 0.182,-0.533 -0.364,-0.507 -0.761,-0.976 -1.193,-1.412 -1.914,-1.922 -3.477,-3.858 -4.682,-5.815 -1.019,-1.652 -2.084,-3.084 -3.187,-4.293 C 107.364,42.198 102.905,36.996 99.457,32.575 96.329,28.564 92.947,24.144 89.309,19.305 89.055,18.967 88.688,18.735 88.277,18.646 86.954,18.363 85.69,18.143 84.478,17.987 77.787,17.12 71.591,16.271 65.885,15.438 43.763,12.222 21.327,7.125 0,0"
       style="fill:#e25e26;fill-opacity:1;fill-rule:nonzero;stroke:none"
       transform="matrix(1.3333333,0,0,-1.3333333,888.5716,703.43667)"
       clip-path="url(#clipPath38)" />
    <path
       id="path39"
       d="m 0,0 c 6.556,-3.165 12.287,-6.2 17.194,-9.111 14.349,-8.499 26.957,-19.094 37.82,-31.785 4.307,-5.033 8.178,-10.342 11.615,-15.924 1.876,-3.048 3.985,-6.598 4.581,-10.097 0.021,-0.118 0,-0.228 -0.055,-0.33 -0.088,-0.16 -0.202,-0.176 -0.338,-0.054 -7.439,6.77 -14.505,13.802 -21.995,20.636 -7.836,7.147 -16.416,13.887 -25.423,19.707 -17.249,11.148 -34.654,20.323 -52.216,27.52 -18.509,7.582 -37.152,13.702 -55.935,18.355 -8.424,2.083 -16.894,3.976 -25.411,5.675 -3.06,0.613 -6.002,1.408 -8.829,2.392 -0.377,0.131 -0.719,0.41 -1.031,0.845 -0.094,0.127 -0.064,0.309 0.067,0.398 0.283,0.198 0.587,0.295 0.917,0.295 6.767,0.013 13.014,-0.304 18.732,-0.95 12.465,-1.412 25.128,-3.554 37.99,-6.424 C -40.753,16.33 -19.751,9.53 0,0"
       style="fill:#e25e26;fill-opacity:1;fill-rule:nonzero;stroke:none"
       transform="matrix(1.3333333,0,0,-1.3333333,589.80467,678.06293)"
       clip-path="url(#clipPath40)" />
    <path
       id="path41"
       d="m 0,0 c 35.707,-11.529 68.818,-27.952 99.338,-49.264 15.588,-10.882 30.787,-23.294 43.082,-37.435 4.68,-5.385 8.792,-11.402 11.413,-17.826 0.245,-0.601 0.372,-1.209 0.38,-1.821 0.004,-0.283 -0.33,-0.44 -0.546,-0.258 -0.912,0.761 -1.69,1.576 -2.328,2.442 -1.543,2.092 -3.068,4.176 -4.569,6.259 -9.058,12.552 -19.819,23.303 -32.283,32.254 -6.898,4.953 -13.931,9.399 -21.095,13.342 -23.733,13.059 -49.329,23.088 -75.615,30.94 -14.649,4.378 -29.54,8.178 -44.675,11.398 -7.055,1.5 -13.745,2.924 -20.064,4.264 -1.619,0.342 -3.411,0.786 -5.381,1.335 -2.104,0.583 -3.981,1.767 -5.655,3.064 -5.769,4.472 -12.134,8.258 -19.096,11.364 -3.199,1.429 -6.467,2.798 -9.793,4.112 -2.008,0.79 -3.901,1.733 -5.685,2.824 -0.156,0.097 -0.228,0.232 -0.211,0.414 0.012,0.152 0.148,0.266 0.3,0.253 4.282,-0.304 8.749,-0.63 13.394,-0.972 C -52.131,14.69 -26.738,8.634 0,0"
       style="fill:#e25e26;fill-opacity:1;fill-rule:nonzero;stroke:none"
       transform="matrix(1.3333333,0,0,-1.3333333,487.7344,671.80253)"
       clip-path="url(#clipPath42)" />
    <path
       id="path43"
       d="m 0,0 c -26.759,12.966 -55.268,22.816 -84.334,29.908 -25.094,6.119 -50.069,10.443 -75.564,12.548 -10.846,0.895 -21.589,1.571 -32.236,2.032 -0.833,0.038 -1.636,0.203 -2.444,0.347 -0.49,0.084 -0.756,0.617 -0.532,1.061 0.296,0.587 0.697,0.929 1.205,1.018 1.635,0.283 3.292,0.431 4.962,0.435 9.4,0.034 19.146,0 29.239,-0.101 3.28,-0.034 6.421,-0.203 9.586,-0.305 1.209,-0.038 2.482,-0.122 3.813,-0.249 23.229,-2.193 46.113,-6.064 68.645,-11.609 13.368,-3.288 27.405,-7.637 42.101,-13.051 C -15.36,14.597 3.517,5.417 21.07,-5.499 c 8.432,-5.248 16.179,-10.713 23.242,-16.397 2.295,-1.847 4.531,-3.837 6.712,-5.967 1.175,-1.15 3.085,-3.165 3.453,-4.616 0.055,-0.21 -0.169,-0.388 -0.364,-0.283 -1.677,0.897 -3.262,1.868 -4.759,2.916 C 33.534,-18.739 17.236,-8.352 0,0"
       style="fill:#e25e26;fill-opacity:1;fill-rule:nonzero;stroke:none"
       transform="matrix(1.3333333,0,0,-1.3333333,583.07613,758.33053)"
       clip-path="url(#clipPath44)" />
    <path
       id="path45"
       d="m 0,0 c 6.703,1.222 12.291,2.007 16.767,2.358 2.037,0.161 4.175,0.263 6.42,0.3 0.976,0.017 1.915,-0.084 2.824,-0.308 1.2,-0.296 1.225,-0.672 0.076,-1.128 C 25.199,0.871 24.181,0.545 23.246,0.347 15.355,-1.314 7.304,-3.004 -0.913,-4.725 c -11.754,-2.455 -23.859,-5.785 -36.312,-9.986 -15.312,-5.169 -30.541,-10.68 -45.718,-15.971 -3.395,-1.183 -7.279,-2.455 -11.654,-3.82 -1.094,-0.343 -2.184,-0.448 -3.266,-0.321 -0.174,0.016 -0.276,0.207 -0.2,0.363 0.503,1.006 3.112,2.536 4.198,3.148 2.718,1.535 5.537,3.035 8.449,4.493 14.227,7.121 29.502,12.987 45.829,17.593 C -26.227,-5.452 -13.031,-2.379 0,0"
       style="fill:#e25e26;fill-opacity:1;fill-rule:nonzero;stroke:none"
       transform="matrix(1.3333333,0,0,-1.3333333,961.7148,708.4516)"
       clip-path="url(#clipPath46)" />
    <path
       id="path47"
       d="m 0,0 c 0,0.786 -0.639,1.424 -1.425,1.424 h -27.143 c -0.786,0 -1.425,-0.638 -1.425,-1.424 v -1.843 c 0,-0.786 0.639,-1.425 1.425,-1.425 h 27.143 c 0.786,0 1.425,0.639 1.425,1.425 z m -28.687,5.024 h 27.288 c 0.638,0 1.158,0.52 1.158,1.159 v 1.703 c 0,1.069 -0.833,1.939 -1.856,1.939 h -25.892 c -1.023,0 -1.856,-0.87 -1.856,-1.939 V 6.183 c 0,-0.639 0.52,-1.159 1.158,-1.159 m 26.692,47.341 c 0,0.812 -0.655,1.467 -1.467,1.467 h -28.073 c -0.812,0 -1.467,-0.655 -1.467,-1.467 v -1.859 c 0,-0.812 0.655,-1.466 1.467,-1.466 h 28.073 c 0.812,0 1.467,0.654 1.467,1.466 v 1.859 m 0.45,8.397 c -0.003,0.69 -0.564,1.248 -1.254,1.248 l -29.527,-0.051 c -0.689,0 -1.251,-0.563 -1.249,-1.254 l 0.005,-2.392 c 0.002,-0.69 0.564,-1.248 1.253,-1.249 l 29.527,0.052 c 0.688,0 1.251,0.562 1.249,1.253 l -0.004,2.393 M -36.548,93.41 c -0.279,-1.137 -0.131,-2.388 0.444,-3.757 0.224,-0.533 0.625,-0.799 1.204,-0.795 10.715,0.047 21.742,0.08 33.074,0.111 0.68,0.004 1.095,0.329 1.238,0.984 0.233,1.044 0.207,2.079 -0.067,3.114 -0.161,0.605 -0.288,1.205 -0.381,1.805 0.321,0.558 0.592,0.951 0.807,1.18 1.611,1.694 3.327,3.334 5.144,4.923 11.307,9.893 24.257,18.109 37.478,25.238 24.34,13.122 49.667,23.595 75.973,31.413 15.901,4.729 30.495,8.795 43.784,12.197 20.162,5.164 41.066,8.93 61.65,12.404 17.49,2.954 34.227,5.709 50.212,8.274 10.203,1.636 20.491,2.751 30.952,3.643 0.392,0.034 0.512,-0.131 0.354,-0.49 -0.096,-0.224 -0.232,-0.423 -0.405,-0.588 -3.068,-2.962 -6.352,-6.073 -9.848,-9.331 -12.557,-11.685 -23.762,-24.431 -33.619,-38.247 -4.92,-6.892 -9.332,-14.051 -13.233,-21.481 -7.473,-14.221 -12.663,-29.477 -15.567,-45.761 -1.226,-6.88 -2.054,-13.371 -2.485,-19.47 -0.381,-5.354 -0.731,-10.277 -1.057,-14.774 -0.046,-0.612 -0.119,-1.293 -0.224,-2.032 -0.131,-0.909 -1.61,-1.235 -2.366,-1.349 -10.868,-1.656 -22.047,-3.106 -33.332,-4.835 -2.523,-0.384 -5.284,-0.853 -8.28,-1.402 -12.566,-2.295 -25.093,-4.476 -37.583,-6.542 -2.828,-0.47 -5.63,-0.968 -8.398,-1.496 -11.045,-2.11 -21.354,-4.201 -30.927,-6.284 C 89.135,15.966 70.386,10.675 51.552,6.103 46.755,4.936 41.995,3.639 37.27,2.21 27.807,-0.647 18.335,-3.639 8.851,-6.763 5.87,-7.747 3.533,-10.084 0.697,-11.322 c -1.94,-0.845 -4.155,-1.357 -6.653,-1.531 -6.868,-0.481 -13.884,-0.269 -21.048,0.63 -0.96,0.123 -1.915,0.271 -2.866,0.449 -2.456,0.464 -3.606,2.18 -5.511,3.457 -2.38,1.592 -4.967,2.759 -7.761,3.504 -5.473,1.458 -10.921,3.003 -16.344,4.639 -7.87,2.375 -15.964,4.51 -23.766,6.445 -23.462,5.815 -47.533,11.377 -72.221,16.681 -4.146,0.892 -8.124,1.682 -11.936,2.379 -18.589,3.394 -38.674,6.546 -58.323,9.948 -9.138,1.581 -19.396,3.098 -30.774,4.548 -0.529,0.068 -1.082,0.182 -1.657,0.342 -1.437,0.406 -2.329,0.875 -2.337,2.553 -0.021,6.605 0.283,11.664 0.338,18.011 0.016,1.607 0.055,2.971 0.114,4.095 0.308,5.612 0.232,11.386 0.203,19.086 -0.009,2.35 -0.153,4.64 -0.28,6.969 -0.232,4.23 -1.55,8.795 -3.195,12.594 -2.286,5.295 -5.118,10.383 -8.487,15.26 -5.921,8.563 -12.84,17.437 -20.761,26.625 -13.931,16.16 -28.022,31.915 -42.203,48.013 -0.524,0.596 -0.972,1.255 -1.34,1.978 -0.22,0.435 0.089,0.955 0.575,0.968 10.406,0.325 20.778,0.325 31.121,-0.009 4.78,-0.152 9.996,-0.465 15.638,-0.938 15.406,-1.289 31.269,-3.892 47.584,-7.818 15.981,-3.842 31.032,-7.92 45.145,-12.235 13.191,-4.027 25.934,-8.604 38.234,-13.726 13.085,-5.452 26.112,-11.657 39.108,-18.168 22.372,-11.204 44.186,-23.954 64.727,-38.307 5.634,-3.933 11.442,-7.839 17.431,-11.71"
       style="fill:#e25e26;fill-opacity:1;fill-rule:nonzero;stroke:none"
       transform="matrix(1.3333333,0,0,-1.3333333,743.8464,972.04933)"
       clip-path="url(#clipPath48)" />
    <path
       id="path49"
       d="m 0,0 c 0.093,-0.6 0.22,-1.2 0.381,-1.805 0.274,-1.035 0.3,-2.07 0.067,-3.114 -0.143,-0.655 -0.557,-0.98 -1.238,-0.984 -11.332,-0.031 -22.359,-0.064 -33.074,-0.111 -0.579,-0.004 -0.98,0.262 -1.204,0.795 -0.575,1.369 -0.723,2.62 -0.444,3.757 2.658,5.422 6.949,8.528 12.87,9.31 3.563,0.469 6.923,0.524 10.089,0.173 C -7.16,7.417 -2.87,5.186 -0.625,0.08 -0.566,-0.051 -0.465,-0.131 -0.321,-0.152 -0.19,-0.173 -0.08,-0.122 0,0"
       style="fill:#6ecbca;fill-opacity:1;fill-rule:nonzero;stroke:none"
       transform="matrix(1.3333333,0,0,-1.3333333,742.4648,845.5532)"
       clip-path="url(#clipPath50)" />
    <path
       id="path51"
       d="m 0,0 c 0.002,-0.691 -0.561,-1.253 -1.249,-1.253 l -29.527,-0.052 c -0.689,10e-4 -1.251,0.559 -1.253,1.249 l -0.005,2.392 c -0.002,0.691 0.56,1.254 1.249,1.254 l 29.527,0.051 c 0.69,0 1.251,-0.558 1.254,-1.248 z"
       style="fill:#6ecbca;fill-opacity:1;fill-rule:nonzero;stroke:none"
       transform="matrix(1.3333333,0,0,-1.3333333,741.7916,894.22373)"
       clip-path="url(#clipPath52)" />
    <path
       id="path53"
       d="M 0,0 C 0,-0.812 -0.655,-1.466 -1.467,-1.466 H -29.54 c -0.812,0 -1.467,0.654 -1.467,1.466 v 1.859 c 0,0.812 0.655,1.467 1.467,1.467 H -1.467 C -0.655,3.326 0,2.671 0,1.859 Z"
       style="fill:#6ecbca;fill-opacity:1;fill-rule:nonzero;stroke:none"
       transform="matrix(1.3333333,0,0,-1.3333333,741.18613,904.70813)"
       clip-path="url(#clipPath54)" />
    <path
       id="path55"
       d="m 0,0 c -0.638,0 -1.158,0.52 -1.158,1.158 v 1.703 c 0,1.07 0.832,1.94 1.855,1.94 H 26.59 c 1.022,0 1.855,-0.87 1.855,-1.94 V 1.158 C 28.445,0.52 27.926,0 27.287,0 Z"
       style="fill:#6ecbca;fill-opacity:1;fill-rule:nonzero;stroke:none"
       transform="matrix(1.3333333,0,0,-1.3333333,705.5976,965.35)"
       clip-path="url(#clipPath56)" />
    <path
       id="path57"
       d="m 0,0 c 0,-0.786 -0.639,-1.425 -1.425,-1.425 h -27.143 c -0.786,0 -1.425,0.639 -1.425,1.425 v 1.843 c 0,0.786 0.639,1.424 1.425,1.424 H -1.425 C -0.639,3.267 0,2.629 0,1.843 Z"
       style="fill:#6ecbca;fill-opacity:1;fill-rule:nonzero;stroke:none"
       transform="matrix(1.3333333,0,0,-1.3333333,743.8464,974.50627)"
       clip-path="url(#clipPath58)" />
  </g>
</svg>
